{"title":"A Christmas Wedding (2006)","uid":9361029,"size":733750061,"categoryP":"video","categoryS":"movies","magnet":"?xt=urn:btih:cbe91f00a0009df9ade13ea49930036d59eeae8c&amp;dn=A+Christmas+Wedding+%282006%29&amp;tr=udp%3A%2F%2Ftracker.openbittorrent.com%3A80&amp;tr=udp%3A%2F%2Fopen.demonii.com%3A1337&amp;tr=udp%3A%2F%2Ftracker.coppersurfer.tk%3A6969&amp;tr=udp%3A%2F%2Fexodus.desync.com%3A6969","seeders":0,"leechers":0,"uploader":"7","files":1,"time":1387318871,"description":"Genre\t, Comedy, Romance\n\n\nActors\tSarah Paulson, Eric Mabius, Richard Blackburn\n\n\nPlot\tEmily and Ben met on Christmas day now plan to marry on this Christmas day almost two years later. Then Emily must attend work, and leaves the wedding plans up to Ben. Problems arise when ...\n\n\nIMDB link\thttp://www.imdb.com/title/tt0486292/\n\n\nGeneral\nComplete name                            : A Christmas Wedding (2006).avi\nFormat                                   : AVI\nFormat/Info                              : Audio Video Interleave\nFile size                                : 700 MiB\nDuration                                 : 1h 24mn\nOverall bit rate                         : 1 153 Kbps\n\nVideo\nID                                       : 0\nFormat                                   : MPEG-4 Visual\nFormat settings, BVOP                    : 1\nFormat settings, QPel                    : No\nFormat settings, GMC                     : No warppoints\nFormat settings, Matrix                  : Default (H.263)\nMuxing mode                              : Packed bitstream\nCodec ID                                 : DX50\nCodec ID/Hint                            : DivX 5\nDuration                                 : 1h 24mn\nBit rate                                 : 1 015 Kbps\nWidth                                    : 720 pixels\nHeight                                   : 398 pixels\nDisplay aspect ratio                     : 16:9\nFrame rate                               : 25.000 fps\nColor space                              : YUV\nChroma subsampling                       : 4:2:0\nBit depth                                : 8 bits\nScan type                                : Progressive\nCompression mode                         : Lossy\nBits/(Pixel*Frame)                       : 0.142\nStream size                              : 616 MiB (88%)\nTitle                                    : Video\nWriting library                          : DivX 6.8.0 Converter 6.6\n\nAudio\nID                                       : 1\nFormat                                   : MPEG Audio\nFormat version                           : Version 1\nFormat profile                           : Layer 3\nMode                                     : Dual mono\nCodec ID                                 : 55\nCodec ID/Hint                            : MP3\nDuration                                 : 1h 24mn\nBit rate mode                            : Constant\nBit rate                                 : 128 Kbps\nChannel(s)                               : 2 channels\nSampling rate                            : 48.0 KHz\nCompression mode                         : Lossy\nStream size                              : 77.7 MiB (11%)\nAlignment                                : Split accross interleaves\nInterleave, duration                     : 40 ms (1.00 video frame)\nInterleave, preload duration             : 500 ms\nTitle                                    : Audio\nWriting library                          : LAME3.92\n &lt;a href=&quot;\nhttp://lookpic.com/O/i2/829/orXOfQXo.jpeg&quot; rel=&quot;nofollow&quot; target=&quot;_NEW&quot;&gt;\nhttp://lookpic.com/O/i2/829/orXOfQXo.jpeg&lt;/a&gt;","torrent":{"xt":"urn:btih:cbe91f00a0009df9ade13ea49930036d59eeae8c","amp;dn":"A+Christmas+Wedding+%282006%29","amp;tr":["udp%3A%2F%2Ftracker.openbittorrent.com%3A80","udp%3A%2F%2Fopen.demonii.com%3A1337","udp%3A%2F%2Ftracker.coppersurfer.tk%3A6969","udp%3A%2F%2Fexodus.desync.com%3A6969"],"infoHash":"cbe91f00a0009df9ade13ea49930036d59eeae8c","infoHashBuffer":{"type":"Buffer","data":[203,233,31,0,160,0,157,249,173,225,62,164,153,48,3,109,89,238,174,140]},"announce":[],"urlList":[]}}